<svg width="414" height="414" viewBox="0 0 414 414" fill="none" xmlns="http://www.w3.org/2000/svg">
<g id="svg with paths 2">
<g id="ring" opacity="0.4">
<path d="M201.112 33.0942C200.91 33.6936 200.8 34.3346 200.8 35C200.8 35.0354 200.8 35.0706 200.801 35.1059C157.31 36.6178 117.954 54.2377 88.5184 82.1774C88.0747 81.6664 87.5526 81.2263 86.9823 80.8782C116.862 52.4448 156.887 34.5363 201.112 33.0942Z" fill="white"/>
<path d="M212.486 33.0881C212.689 33.6892 212.8 34.3323 212.8 35C212.8 35.0332 212.8 35.0663 212.799 35.0994C258.154 36.6303 299.073 55.746 328.949 85.8394C329.573 85.4678 330.27 85.2063 331.012 85.082C300.65 54.1783 258.847 34.5523 212.486 33.0881Z" fill="white"/>
<path d="M337.827 92.4282C337.648 93.1551 337.335 93.831 336.917 94.4281C362.685 124.159 378.432 162.807 378.89 205.104C379.25 205.036 379.621 205 380 205C380.298 205 380.595 205.027 380.89 205.078C380.422 161.962 364.25 122.595 337.827 92.4282Z" fill="white"/>
<path d="M380.619 216.968C380.415 216.989 380.209 217 380 217C379.527 217 379.065 216.944 378.623 216.839C376.492 254.566 362.186 289.053 339.575 316.43C340.09 316.939 340.433 317.561 340.653 318.263C363.793 290.481 378.446 255.385 380.619 216.968Z" fill="white"/>
<path d="M333.147 326.706C332.478 326.487 331.86 326.153 331.317 325.728C301.898 356.546 261.156 376.461 215.79 378.774C215.928 379.394 215.988 380.065 215.998 380.766C262.048 378.39 303.381 358.087 333.147 326.706Z" fill="white"/>
<path d="M204 380.976C204.003 380.277 204.127 379.606 204.351 378.981C161.019 378.352 121.625 361.686 91.7271 334.693C91.1755 335.133 90.5455 335.478 89.8623 335.702C120.095 363.219 160.036 380.257 204 380.976Z" fill="white"/>
</g>
<g id="Dots1">
<g id="Group">
<path id="Vector" d="M84 80C80.7 80 78 82.7 78 86C78 89.3 80.7 92 84 92C87.3 92 90 89.3 90 86C90 82.7 87 80 84 80Z" fill="#0092FF"/>
</g>
<g id="Group_2">
<path id="Vector_2" d="M84 80C80.7 80 78 82.7 78 86C78 89.3 80.7 92 84 92C87.3 92 90 89.3 90 86C90 82.7 87 80 84 80Z" stroke="white" stroke-width="2" stroke-miterlimit="10"/>
</g>
</g>
<g id="Dots2">
<g id="Group_3">
<path id="Vector_3" d="M206.8 29C203.5 29 200.8 31.7 200.8 35C200.8 38.3 203.5 41 206.8 41C210.1 41 212.8 38.3 212.8 35C212.8 31.7 210.1 29 206.8 29Z" fill="#0092FF"/>
</g>
<g id="Group_4">
<path id="Vector_4" d="M206.8 29C203.5 29 200.8 31.7 200.8 35C200.8 38.3 203.5 41 206.8 41C210.1 41 212.8 38.3 212.8 35C212.8 31.7 210.1 29 206.8 29Z" stroke="white" stroke-width="2" stroke-miterlimit="10"/>
</g>
</g>
<g id="Dots3">
<g id="Group_5">
<path id="Vector_5" d="M332 85C328.7 85 326 87.7 326 91C326 94.3 328.7 97 332 97C335.3 97 338 94.3 338 91C338 87.7 335 85 332 85Z" fill="#0092FF"/>
</g>
<g id="Group_6">
<path id="Vector_6" d="M332 85C328.7 85 326 87.7 326 91C326 94.3 328.7 97 332 97C335.3 97 338 94.3 338 91C338 87.7 335 85 332 85Z" stroke="white" stroke-width="2" stroke-miterlimit="10"/>
</g>
</g>
<g id="Dots4">
<g id="Group_7">
<path id="Vector_7" d="M380 205C376.7 205 374 207.7 374 211C374 214.3 376.7 217 380 217C383.3 217 386 214.3 386 211C386 207.7 383 205 380 205Z" fill="#0092FF"/>
</g>
<g id="Group_8">
<path id="Vector_8" d="M380 205C376.7 205 374 207.7 374 211C374 214.3 376.7 217 380 217C383.3 217 386 214.3 386 211C386 207.7 383 205 380 205Z" stroke="white" stroke-width="2" stroke-miterlimit="10"/>
</g>
</g>
<g id="Dots5">
<g id="Group_9">
<path id="Vector_9" d="M335 315C331.7 315 329 317.7 329 321C329 324.3 331.7 327 335 327C338.3 327 341 324.3 341 321C341 317.7 340 315 335 315Z" fill="#0092FF"/>
</g>
<g id="Group_10">
<path id="Vector_10" d="M335 315C331.7 315 329 317.7 329 321C329 324.3 331.7 327 335 327C338.3 327 341 324.3 341 321C341 317.7 340 315 335 315Z" stroke="white" stroke-width="2" stroke-miterlimit="10"/>
</g>
</g>
<g id="Dots6">
<g id="Group_11">
<path id="Vector_11" d="M210 375C206.7 375 204 377.7 204 381C204 384.3 206.7 387 210 387C213.3 387 216 384.3 216 381C216 377.7 215 375 210 375Z" fill="#0092FF"/>
</g>
<g id="Group_12">
<path id="Vector_12" d="M210 375C206.7 375 204 377.7 204 381C204 384.3 206.7 387 210 387C213.3 387 216 384.3 216 381C216 377.7 215 375 210 375Z" stroke="white" stroke-width="2" stroke-miterlimit="10"/>
</g>
</g>
<g id="Dots7">
<g id="Group_13">
<path id="Vector_13" d="M88 324C84.7 324 82 326.7 82 330C82 333.3 84.7 336 88 336C91.3 336 94 333.3 94 330C94 326.7 92 324 88 324Z" fill="#0092FF"/>
</g>
<g id="Group_14">
<path id="Vector_14" d="M88 324C84.7 324 82 326.7 82 330C82 333.3 84.7 336 88 336C91.3 336 94 333.3 94 330C94 326.7 92 324 88 324Z" stroke="white" stroke-width="2" stroke-miterlimit="10"/>
</g>
</g>
</g>
</svg>
