<svg width="414" height="414" viewBox="0 0 414 414" fill="none" xmlns="http://www.w3.org/2000/svg">
<g id="svg with paths 1">
<path id="Transparent_Ring" opacity="0.4" d="M84.2 85C115.5 53.5 158.9 34 206.9 34C302.4 34 379.9 111.5 379.9 207C379.9 302.5 302.4 380 206.9 380C159.1 380 115.9 360.6 84.6 329.3" stroke="white" stroke-width="2" stroke-miterlimit="10"/>
<path id="Opaque_Ring" d="M84.2 85C115.5 53.5 158.9 34 206.9 34C302.4 34 379.9 111.5 379.9 207C379.9 302.5 302.4 380 206.9 380C159.1 380 115.9 360.6 84.6 329.3" stroke="white" stroke-width="2" stroke-miterlimit="10" stroke-dasharray="10 1000"/>
<g id="Dots1">
<g id="Group">
<path id="Vector" d="M84 80C80.7 80 78 82.7 78 86C78 89.3 80.7 92 84 92C87.3 92 90 89.3 90 86C90 82.7 87 80 84 80Z" fill="#0092FF"/>
</g>
<g id="Group_2">
<path id="Vector_2" d="M84 80C80.7 80 78 82.7 78 86C78 89.3 80.7 92 84 92C87.3 92 90 89.3 90 86C90 82.7 87 80 84 80Z" stroke="white" stroke-width="2" stroke-miterlimit="10"/>
</g>
</g>
<g id="Dots2">
<g id="Group_3">
<path id="Vector_3" d="M206.8 29C203.5 29 200.8 31.7 200.8 35C200.8 38.3 203.5 41 206.8 41C210.1 41 212.8 38.3 212.8 35C212.8 31.7 210.1 29 206.8 29Z" fill="#0092FF"/>
</g>
<g id="Group_4">
<path id="Vector_4" d="M206.8 29C203.5 29 200.8 31.7 200.8 35C200.8 38.3 203.5 41 206.8 41C210.1 41 212.8 38.3 212.8 35C212.8 31.7 210.1 29 206.8 29Z" stroke="white" stroke-width="2" stroke-miterlimit="10"/>
</g>
</g>
<g id="Dots3">
<g id="Group_5">
<path id="Vector_5" d="M332 85C328.7 85 326 87.7 326 91C326 94.3 328.7 97 332 97C335.3 97 338 94.3 338 91C338 87.7 335 85 332 85Z" fill="#0092FF"/>
</g>
<g id="Group_6">
<path id="Vector_6" d="M332 85C328.7 85 326 87.7 326 91C326 94.3 328.7 97 332 97C335.3 97 338 94.3 338 91C338 87.7 335 85 332 85Z" stroke="white" stroke-width="2" stroke-miterlimit="10"/>
</g>
</g>
<g id="Dots4">
<g id="Group_7">
<path id="Vector_7" d="M380 205C376.7 205 374 207.7 374 211C374 214.3 376.7 217 380 217C383.3 217 386 214.3 386 211C386 207.7 383 205 380 205Z" fill="#0092FF"/>
</g>
<g id="Group_8">
<path id="Vector_8" d="M380 205C376.7 205 374 207.7 374 211C374 214.3 376.7 217 380 217C383.3 217 386 214.3 386 211C386 207.7 383 205 380 205Z" stroke="white" stroke-width="2" stroke-miterlimit="10"/>
</g>
</g>
<g id="Dots5">
<g id="Group_9">
<path id="Vector_9" d="M335 315C331.7 315 329 317.7 329 321C329 324.3 331.7 327 335 327C338.3 327 341 324.3 341 321C341 317.7 340 315 335 315Z" fill="#0092FF"/>
</g>
<g id="Group_10">
<path id="Vector_10" d="M335 315C331.7 315 329 317.7 329 321C329 324.3 331.7 327 335 327C338.3 327 341 324.3 341 321C341 317.7 340 315 335 315Z" stroke="white" stroke-width="2" stroke-miterlimit="10"/>
</g>
</g>
<g id="Dots6">
<g id="Group_11">
<path id="Vector_11" d="M210 375C206.7 375 204 377.7 204 381C204 384.3 206.7 387 210 387C213.3 387 216 384.3 216 381C216 377.7 215 375 210 375Z" fill="#0092FF"/>
</g>
<g id="Group_12">
<path id="Vector_12" d="M210 375C206.7 375 204 377.7 204 381C204 384.3 206.7 387 210 387C213.3 387 216 384.3 216 381C216 377.7 215 375 210 375Z" stroke="white" stroke-width="2" stroke-miterlimit="10"/>
</g>
</g>
<g id="Dots7">
<g id="Group_13">
<path id="Vector_13" d="M88 324C84.7 324 82 326.7 82 330C82 333.3 84.7 336 88 336C91.3 336 94 333.3 94 330C94 326.7 92 324 88 324Z" fill="#0092FF"/>
</g>
<g id="Group_14">
<path id="Vector_14" d="M88 324C84.7 324 82 326.7 82 330C82 333.3 84.7 336 88 336C91.3 336 94 333.3 94 330C94 326.7 92 324 88 324Z" stroke="white" stroke-width="2" stroke-miterlimit="10"/>
</g>
</g>
</g>
</svg>
